<?xml version="1.0" encoding="UTF-8"?>
<svg id="Layer_1" data-name="Layer 1" xmlns="http://www.w3.org/2000/svg" viewBox="0 0 101.35 94.93">
  <defs>
    <style>
      .cls-1, .cls-2 {
        fill: #a76a5c;
      }

      .cls-2 {
        font-family: Times-Bold, Times;
        font-size: 15.55px;
        font-weight: 700;
      }
    </style>
  </defs>
  <text class="cls-2" transform="translate(2.08 86.65)"><tspan x="0" y="0">Nursing Home</tspan></text>
  <g>
    <path class="cls-1" d="M41.09,21.97c-.35.25-.69.5-1.04.74-.96.68-1.95,1.38-2.89,2.12-.21.16-.46.64-.46.97-.03,6.05-.03,12.19-.02,18.14v1.78c0,4.94.01,11.49.04,16.43,0,.64-.12,1.05-.39,1.32-.32.32-.75.36-1.08.35-3.11-.02-6.21-.02-9.32-.02-3.58,0-7.16,0-10.74-.03.67,1.16,1.38,2,2.17,2.95.5.59,1.02,1.21,1.56,1.94.19-.08.41-.16.66-.16,5.82-.01,11.64-.01,17.47-.01h3.68c.31,0,.67,0,.74-.05.05-.08.05-.56.05-1.02V22.35c0-.25,0-.5,0-.68-.12.08-.27.19-.42.3Z"/>
    <path class="cls-1" d="M71.69,63.81h-5c-.67,0-1.1,0-1.4-.29s-.31-.78-.31-1.72c0-6.04,0-12.72,0-19.19v-11.31c0-1.77,0-3.54.03-5.3.01-.65-.13-.98-.56-1.27-.77-.52-1.52-1.06-2.27-1.61-.59-.43-1.19-.86-1.79-1.28-.09-.06-.16-.11-.21-.14,0,.11,0,.25,0,.42,0,5.63,0,11.25,0,16.88v6.49s0,21.82,0,21.82c0,.51,0,1.05.07,1.14.08.06.48.06.84.06h6.67c4.67,0,9.34,0,14,.01.25,0,.49.04.73.09.57-.81,1.12-1.43,1.65-2.04.71-.82,1.39-1.59,2.02-2.71-.05,0-.1,0-.14,0-4.77-.05-9.63-.04-14.32-.04Z"/>
    <path class="cls-1" d="M68.88,23.08c-.02,2.22-.01,4.45,0,6.67v8.1c0,7.16,0,15.25-.01,21.8,0,.48.08.61.12.65.04.04.14.07.41.06.82-.03,1.65-.03,2.45-.02.4,0,.79,0,1.19,0,.28,0,.59,0,.66-.04.04-.07.04-.51.04-.94v-21.15c0-1.59-.01-3.17-.02-4.76-.03-3.77-.06-7.67.08-11.5.1-2.77-.52-4.14-2.44-5.45-5.12-3.48-10.24-7.21-15.19-10.83-1.62-1.19-3.25-2.37-4.87-3.55-.34-.25-.5-.25-.82-.01-1.52,1.13-3.06,2.23-4.59,3.32l-5.68,4.08c-3.66,2.64-7.44,5.36-11.18,8.01-.77.55-1.04,1.14-1.04,2.28.04,6.23.03,12.57.03,18.69v6.1s0,3.53,0,3.53c0,3.82,0,8.31-.01,11.45,0,.48.07.64.13.7.07.07.24.07.37.07.66-.03,1.3-.05,1.94-.05s1.29.02,1.91.05c.2,0,.34-.02.39-.08.05-.05.12-.2.08-.67-.02-.26-.02-.51-.01-.77v-2.99c0-10.33,0-22.36,0-32.37,0-.72,0-1.55.81-2.12,2.52-1.79,5.03-3.59,7.55-5.39,2.96-2.12,5.92-4.24,8.89-6.35.44-.31,1.2-.3,1.66.02,3.51,2.48,7.01,4.99,10.5,7.5,1.95,1.4,3.9,2.8,5.85,4.19.59.42.84.94.83,1.74Z"/>
  </g>
</svg>